<svg xmlns="http://www.w3.org/2000/svg" viewBox="0 0 512 512">
  <defs>
    <linearGradient id="bg" x1="0%" y1="0%" x2="100%" y2="100%">
      <stop offset="0%" stop-color="#7C3AED"/>
      <stop offset="100%" stop-color="#4C1D95"/>
    </linearGradient>
  </defs>
  <rect width="512" height="512" rx="112" fill="url(#bg)"/>
  <!-- Bitcoin ₿ symbol -->
  <g fill="white">
    <!-- Vertical bars -->
    <rect x="220" y="100" width="24" height="40" rx="4"/>
    <rect x="272" y="100" width="24" height="40" rx="4"/>
    <rect x="220" y="372" width="24" height="40" rx="4"/>
    <rect x="272" y="372" width="24" height="40" rx="4"/>
    <!-- Main B body -->
    <path d="M192 140h100c44 0 80 28 80 64 0 28-18 52-44 60 32 8 54 36 54 68 0 40-36 72-84 72H192V140z
             M232 180v56h52c24 0 44-12 44-28s-20-28-44-28h-52z
             M232 272v64h60c28 0 48-14 48-32s-20-32-48-32h-60z"/>
  </g>
</svg>
